SolidWorks IGES file using analytic representation for surfaces         S      1
1H,,1H;,5HPart1,65HI:\Senior Design\AircraftDesignGroup6\Aircraft geometG      1
ry\Part1.IGS,15HSolidWorks 2025,15HSolidWorks 2025,32,308,15,308,15,5HPaG      2
rt1,1.,1,2HIN,50,0.125,13H260303.171100,1E-08,19684.6456692913,7Hkco0017G      3
,,11,0,13H260303.171100;                                                G      4
     126       1       0       0       0                        00000000D      1
     126       0       0      55       0                               0D      2
     314      56       0       0       0                        00000200D      3
     314       0       8       1       0                               0D      4
     128      57       0       0       0                        01010000D      5
     128       0       0      91       0                               0D      6
     126     148       0       0       0                        01010500D      7
     126       0       0       2       0                               0D      8
     110     150       0       0       0                        01010000D      9
     110       0       0       1       0                               0D     10
     126     151       0       0       0                        01010500D     11
     126       0       0       2       0                               0D     12
     126     153       0       0       0                        01010000D     13
     126       0       0      57       0                               0D     14
     126     210       0       0       0                        01010500D     15
     126       0       0       2       0                               0D     16
     110     212       0       0       0                        01010000D     17
     110       0       0       1       0                               0D     18
     126     213       0       0       0                        01010500D     19
     126       0       0       2       0                               0D     20
     126     215       0       0       0                        01010000D     21
     126       0       0      55       0                               0D     22
     102     270       0       0       0                        01010500D     23
     102       0       0       1       0                               0D     24
     102     271       0       0       0                        01010000D     25
     102       0       0       1       0                               0D     26
     142     272       0       0       0                        00010500D     27
     142       0       0       1       0                               0D     28
     144     273       0       0       0                        00000000D     29
     144       0      -3       1       0                               0D     30
     128     274       0       0       0                        01010000D     31
     128       0       0       3       0                               0D     32
     126     277       0       0       0                        01010500D     33
     126       0       0       2       0                               0D     34
     110     279       0       0       0                        01010000D     35
     110       0       0       1       0                               0D     36
     126     280       0       0       0                        01010500D     37
     126       0       0       2       0                               0D     38
     110     282       0       0       0                        01010000D     39
     110       0       0       1       0                               0D     40
     126     283       0       0       0                        01010500D     41
     126       0       0       2       0                               0D     42
     110     285       0       0       0                        01010000D     43
     110       0       0       1       0                               0D     44
     126     286       0       0       0                        01010500D     45
     126       0       0       2       0                               0D     46
     110     288       0       0       0                        01010000D     47
     110       0       0       1       0                               0D     48
     102     289       0       0       0                        01010500D     49
     102       0       0       1       0                               0D     50
     102     290       0       0       0                        01010000D     51
     102       0       0       1       0                               0D     52
     142     291       0       0       0                        00010500D     53
     142       0       0       1       0                               0D     54
     144     292       0       0       0                        00000000D     55
     144       0      -3       1       0                               0D     56
     128     293       0       0       0                        01010000D     57
     128       0       0       4       0                               0D     58
     126     297       0       0       0                        01010500D     59
     126       0       0       2       0                               0D     60
     110     299       0       0       0                        01010000D     61
     110       0       0       1       0                               0D     62
     126     300       0       0       0                        01010500D     63
     126       0       0     146       0                               0D     64
     126     446       0       0       0                        01010000D     65
     126       0       0      57       0                               0D     66
     102     503       0       0       0                        01010500D     67
     102       0       0       1       0                               0D     68
     102     504       0       0       0                        01010000D     69
     102       0       0       1       0                               0D     70
     142     505       0       0       0                        00010500D     71
     142       0       0       1       0                               0D     72
     144     506       0       0       0                        00000000D     73
     144       0      -3       1       0                               0D     74
     128     507       0       0       0                        01010000D     75
     128       0       0       3       0                               0D     76
     126     510       0       0       0                        01010500D     77
     126       0       0     146       0                               0D     78
     126     656       0       0       0                        01010000D     79
     126       0       0      55       0                               0D     80
     126     711       0       0       0                        01010500D     81
     126       0       0       2       0                               0D     82
     110     713       0       0       0                        01010000D     83
     110       0       0       1       0                               0D     84
     102     714       0       0       0                        01010500D     85
     102       0       0       1       0                               0D     86
     102     715       0       0       0                        01010000D     87
     102       0       0       1       0                               0D     88
     142     716       0       0       0                        00010500D     89
     142       0       0       1       0                               0D     90
     144     717       0       0       0                        00000000D     91
     144       0      -3       1       0                               0D     92
126,62,3,1,0,1,0,0.,0.,0.,0.,0.00130334424690994,                      1P      1
0.00535252242414294,0.0120463392491588,0.0213110949672604,             1P      2
0.033047621762748,0.0471172154179265,0.0633625077444997,               1P      3
0.0816121160297562,0.101657458083741,0.123273920415156,                1P      4
0.146232520225836,0.170277756964237,0.195135790175077,                 1P      5
0.220540261416478,0.246208388993795,0.271859818573383,                 1P      6
0.297233649103041,0.322260275054436,0.346452956844563,                 1P      7
0.369543629974244,0.391307276640326,0.411513240136213,                 1P      8
0.429980367793744,0.446542666411816,0.461070388232367,                 1P      9
0.473485741456423,0.483779538577516,0.492063935856894,                 1P     10
0.498681589263914,0.504376593126916,0.510069862282838,                 1P     11
0.516664637247545,0.524877655102497,0.53502456919341,                  1P     12
0.54719047062642,0.56136006311032,0.577448521036953,                   1P     13
0.595323849569703,0.614843136501756,0.635823684951505,                 1P     14
0.658074561537249,0.681378869177688,0.705504986097775,                 1P     15
0.730440424143944,0.755703477261186,0.781015275238876,                 1P     16
0.806090941320366,0.830659548720996,0.854449962108137,                 1P     17
0.877193250095509,0.898643274576425,0.91855554799695,                  1P     18
0.936704445189713,0.952884106918786,0.966904110042179,                 1P     19
0.978611738621669,0.987863879347926,0.994552223312048,                 1P     20
0.99859310543663,1.,1.,1.,1.,1.,1.,1.,1.,1.,1.,1.,1.,1.,1.,1.,         1P     21
1.,1.,1.,1.,1.,1.,1.,1.,1.,1.,1.,1.,1.,1.,1.,1.,1.,1.,1.,1.,1.,        1P     22
1.,1.,1.,1.,1.,1.,1.,1.,1.,1.,1.,1.,1.,1.,1.,1.,1.,1.,1.,1.,1.,        1P     23
1.,1.,1.,1.,1.,1.,1.,1.,1.,1.,183.04,0.287373,0.,182.881421269,        1P     24
0.32786708,0.,182.230176429,0.49416656,0.,180.758121133,               1P     25
0.842770446,0.,178.315515014,1.430938062,0.,174.928033068,             1P     26
2.218515207,0.,170.632552893,3.190137526,0.,165.473857201,             1P     27
4.318369344,0.,159.503489947,5.562021037,0.,152.78611942,              1P     28
6.898020678,0.,145.391217998,8.282938943,0.,137.39867903,              1P     29
9.686381636,0.,128.893095943,11.068583172,0.,119.967194841,            1P     30
12.397299493,0.,110.718239094,13.635606705,0.,101.247994607,           1P     31
14.747795724,0.,91.660481464,15.704530261,0.,82.059205111,             1P     32
16.464621786,0.,72.524094067,17.01759087,0.,63.158948441,              1P     33
17.275892377,0.,54.076883957,17.204971806,0.,45.413489362,             1P     34
16.80053061,0.,37.273097111,16.075164043,0.,29.751559657,              1P     35
15.04028386,0.,22.93573915,13.733700629,0.,16.904085726,               1P     36
12.184107687,0.,11.718217744,10.446748251,0.,7.432392677,              1P     37
8.557103304,0.,4.073056542,6.56494739,0.,1.655533672,                  1P     38
4.492179115,0.,0.177832489,2.304155847,0.,-0.187266689,                1P     39
-0.018916517,0.,0.63079974,-2.218177221,0.,2.484989109,                1P     40
-4.076381475,0.,5.213826019,-5.655360396,0.,8.811509806,               1P     41
-7.011456121,0.,13.256218365,-8.146532629,0.,18.509266107,             1P     42
-9.057133944,0.,24.517922255,-9.736171224,0.,31.220358133,             1P     43
-10.190384589,0.,38.548085604,-10.427653463,0.,46.428588716,           1P     44
-10.466829459,0.,54.783094809,-10.330199403,0.,63.528926239,           1P     45
-10.047854664,0.,72.607976972,-9.659189909,0.,81.928799574,            1P     46
-9.174381668,0.,91.39155185,-8.565842079,0.,100.866522154,             1P     47
-7.879583305,0.,110.249870992,-7.138420857,0.,119.439113501,           1P     48
-6.367889945,0.,128.334268322,-5.595767872,0.,136.836630703,           1P     49
-4.827676061,0.,144.852582083,-4.088209308,0.,152.292378782,           1P     50
-3.383966294,0.,159.072059387,-2.729153553,0.,165.114332866,           1P     51
-2.136004469,0.,170.350313925,-1.608731183,0.,174.719902196,           1P     52
-1.160230938,0.,178.173101405,-0.800571206,0.,180.668630088,           1P     53
-0.53959439,0.,182.183834723,-0.376264524,0.,182.864275413,            1P     54
-0.305617639,0.,183.04,-0.287373,0.,0.,1.,0.,0.,-1.;                   1P     55
314,79.2156862745098,81.9607843137255,93.3333333333333,;               3P     56
128,62,1,3,1,0,0,1,0,0,0.,0.,0.,0.,0.00130334424690994,                5P     57
0.00535252242414294,0.0120463392491588,0.0213110949672604,             5P     58
0.033047621762748,0.0471172154179265,0.0633625077444997,               5P     59
0.0816121160297562,0.101657458083741,0.123273920415156,                5P     60
0.146232520225836,0.170277756964237,0.195135790175077,                 5P     61
0.220540261416478,0.246208388993795,0.271859818573383,                 5P     62
0.297233649103041,0.322260275054436,0.346452956844563,                 5P     63
0.369543629974244,0.391307276640326,0.411513240136213,                 5P     64
0.429980367793744,0.446542666411816,0.461070388232367,                 5P     65
0.473485741456423,0.483779538577516,0.492063935856894,                 5P     66
0.498681589263914,0.504376593126916,0.510069862282838,                 5P     67
0.516664637247545,0.524877655102497,0.53502456919341,                  5P     68
0.54719047062642,0.56136006311032,0.577448521036953,                   5P     69
0.595323849569703,0.614843136501756,0.635823684951505,                 5P     70
0.658074561537249,0.681378869177688,0.705504986097775,                 5P     71
0.730440424143944,0.755703477261186,0.781015275238876,                 5P     72
0.806090941320366,0.830659548720996,0.854449962108137,                 5P     73
0.877193250095509,0.898643274576425,0.91855554799695,                  5P     74
0.936704445189713,0.952884106918786,0.966904110042179,                 5P     75
0.978611738621669,0.987863879347926,0.994552223312048,                 5P     76
0.99859310543663,1.,1.,1.,1.,0.,0.,1.,1.,1.,1.,1.,1.,1.,1.,1.,         5P     77
1.,1.,1.,1.,1.,1.,1.,1.,1.,1.,1.,1.,1.,1.,1.,1.,1.,1.,1.,1.,1.,        5P     78
1.,1.,1.,1.,1.,1.,1.,1.,1.,1.,1.,1.,1.,1.,1.,1.,1.,1.,1.,1.,1.,        5P     79
1.,1.,1.,1.,1.,1.,1.,1.,1.,1.,1.,1.,1.,1.,1.,1.,1.,1.,1.,1.,1.,        5P     80
1.,1.,1.,1.,1.,1.,1.,1.,1.,1.,1.,1.,1.,1.,1.,1.,1.,1.,1.,1.,1.,        5P     81
1.,1.,1.,1.,1.,1.,1.,1.,1.,1.,1.,1.,1.,1.,1.,1.,1.,1.,1.,1.,1.,        5P     82
1.,1.,1.,1.,1.,1.,1.,1.,1.,1.,1.,1.,1.,1.,183.04,0.287373,100.,        5P     83
182.881421269,0.32786708,100.,182.230176429,0.49416656,100.,           5P     84
180.758121133,0.842770446,100.,178.315515014,1.430938062,100.,         5P     85
174.928033068,2.218515207,100.,170.632552893,3.190137526,100.,         5P     86
165.473857201,4.318369344,100.,159.503489947,5.562021037,100.,         5P     87
152.78611942,6.898020678,100.,145.391217998,8.282938943,100.,          5P     88
137.39867903,9.686381636,100.,128.893095943,11.068583172,100.,         5P     89
119.967194841,12.397299493,100.,110.718239094,13.635606705,            5P     90
100.,101.247994607,14.747795724,100.,91.660481464,15.704530261,        5P     91
100.,82.059205111,16.464621786,100.,72.524094067,17.01759087,          5P     92
100.,63.158948441,17.275892377,100.,54.076883957,17.204971806,         5P     93
100.,45.413489362,16.80053061,100.,37.273097111,16.075164043,          5P     94
100.,29.751559657,15.04028386,100.,22.93573915,13.733700629,           5P     95
100.,16.904085726,12.184107687,100.,11.718217744,10.446748251,         5P     96
100.,7.432392677,8.557103304,100.,4.073056542,6.56494739,100.,         5P     97
1.655533672,4.492179115,100.,0.177832489,2.304155847,100.,             5P     98
-0.187266689,-0.018916517,100.,0.63079974,-2.218177221,100.,           5P     99
2.484989109,-4.076381475,100.,5.213826019,-5.655360396,100.,           5P    100
8.811509806,-7.011456121,100.,13.256218365,-8.146532629,100.,          5P    101
18.509266107,-9.057133944,100.,24.517922255,-9.736171224,100.,         5P    102
31.220358133,-10.190384589,100.,38.548085604,-10.427653463,            5P    103
100.,46.428588716,-10.466829459,100.,54.783094809,                     5P    104
-10.330199403,100.,63.528926239,-10.047854664,100.,                    5P    105
72.607976972,-9.659189909,100.,81.928799574,-9.174381668,100.,         5P    106
91.39155185,-8.565842079,100.,100.866522154,-7.879583305,100.,         5P    107
110.249870992,-7.138420857,100.,119.439113501,-6.367889945,            5P    108
100.,128.334268322,-5.595767872,100.,136.836630703,                    5P    109
-4.827676061,100.,144.852582083,-4.088209308,100.,                     5P    110
152.292378782,-3.383966294,100.,159.072059387,-2.729153553,            5P    111
100.,165.114332866,-2.136004469,100.,170.350313925,                    5P    112
-1.608731183,100.,174.719902196,-1.160230938,100.,                     5P    113
178.173101405,-0.800571206,100.,180.668630088,-0.53959439,100.,        5P    114
182.183834723,-0.376264524,100.,182.864275413,-0.305617639,            5P    115
100.,183.04,-0.287373,100.,183.04,0.287373,0.,182.881421269,           5P    116
0.32786708,0.,182.230176429,0.49416656,0.,180.758121133,               5P    117
0.842770446,0.,178.315515014,1.430938062,0.,174.928033068,             5P    118
2.218515207,0.,170.632552893,3.190137526,0.,165.473857201,             5P    119
4.318369344,0.,159.503489947,5.562021037,0.,152.78611942,              5P    120
6.898020678,0.,145.391217998,8.282938943,0.,137.39867903,              5P    121
9.686381636,0.,128.893095943,11.068583172,0.,119.967194841,            5P    122
12.397299493,0.,110.718239094,13.635606705,0.,101.247994607,           5P    123
14.747795724,0.,91.660481464,15.704530261,0.,82.059205111,             5P    124
16.464621786,0.,72.524094067,17.01759087,0.,63.158948441,              5P    125
17.275892377,0.,54.076883957,17.204971806,0.,45.413489362,             5P    126
16.80053061,0.,37.273097111,16.075164043,0.,29.751559657,              5P    127
15.04028386,0.,22.93573915,13.733700629,0.,16.904085726,               5P    128
12.184107687,0.,11.718217744,10.446748251,0.,7.432392677,              5P    129
8.557103304,0.,4.073056542,6.56494739,0.,1.655533672,                  5P    130
4.492179115,0.,0.177832489,2.304155847,0.,-0.187266689,                5P    131
-0.018916517,0.,0.63079974,-2.218177221,0.,2.484989109,                5P    132
-4.076381475,0.,5.213826019,-5.655360396,0.,8.811509806,               5P    133
-7.011456121,0.,13.256218365,-8.146532629,0.,18.509266107,             5P    134
-9.057133944,0.,24.517922255,-9.736171224,0.,31.220358133,             5P    135
-10.190384589,0.,38.548085604,-10.427653463,0.,46.428588716,           5P    136
-10.466829459,0.,54.783094809,-10.330199403,0.,63.528926239,           5P    137
-10.047854664,0.,72.607976972,-9.659189909,0.,81.928799574,            5P    138
-9.174381668,0.,91.39155185,-8.565842079,0.,100.866522154,             5P    139
-7.879583305,0.,110.249870992,-7.138420857,0.,119.439113501,           5P    140
-6.367889945,0.,128.334268322,-5.595767872,0.,136.836630703,           5P    141
-4.827676061,0.,144.852582083,-4.088209308,0.,152.292378782,           5P    142
-3.383966294,0.,159.072059387,-2.729153553,0.,165.114332866,           5P    143
-2.136004469,0.,170.350313925,-1.608731183,0.,174.719902196,           5P    144
-1.160230938,0.,178.173101405,-0.800571206,0.,180.668630088,           5P    145
-0.53959439,0.,182.183834723,-0.376264524,0.,182.864275413,            5P    146
-0.305617639,0.,183.04,-0.287373,0.,0.,1.,0.,1.;                       5P    147
126,1,1,1,0,1,0,0.,0.,1.,1.,1.,1.,0.,1.,0.,0.,0.,0.,0.,1.,0.,          7P    148
0.,1.;                                                                 7P    149
110,183.04,0.287373,0.,183.04,0.287373,100.;                           9P    150
126,1,1,1,0,1,0,0.,0.,1.,1.,1.,1.,0.,0.,0.,1.,0.,0.,0.,1.,0.,         11P    151
0.,1.;                                                                11P    152
126,62,3,1,0,1,0,0.,0.,0.,0.,0.00130334424690994,                     13P    153
0.00535252242414294,0.0120463392491588,0.0213110949672604,            13P    154
0.033047621762748,0.0471172154179265,0.0633625077444997,              13P    155
0.0816121160297562,0.101657458083741,0.123273920415156,               13P    156
0.146232520225836,0.170277756964237,0.195135790175077,                13P    157
0.220540261416478,0.246208388993795,0.271859818573383,                13P    158
0.297233649103041,0.322260275054436,0.346452956844563,                13P    159
0.369543629974244,0.391307276640326,0.411513240136213,                13P    160
0.429980367793744,0.446542666411816,0.461070388232367,                13P    161
0.473485741456423,0.483779538577516,0.492063935856894,                13P    162
0.498681589263914,0.504376593126916,0.510069862282838,                13P    163
0.516664637247545,0.524877655102497,0.53502456919341,                 13P    164
0.54719047062642,0.56136006311032,0.577448521036953,                  13P    165
0.595323849569703,0.614843136501756,0.635823684951505,                13P    166
0.658074561537249,0.681378869177688,0.705504986097775,                13P    167
0.730440424143944,0.755703477261186,0.781015275238876,                13P    168
0.806090941320366,0.830659548720996,0.854449962108137,                13P    169
0.877193250095509,0.898643274576425,0.91855554799695,                 13P    170
0.936704445189713,0.952884106918786,0.966904110042179,                13P    171
0.978611738621669,0.987863879347926,0.994552223312048,                13P    172
0.99859310543663,1.,1.,1.,1.,1.,1.,1.,1.,1.,1.,1.,1.,1.,1.,1.,        13P    173
1.,1.,1.,1.,1.,1.,1.,1.,1.,1.,1.,1.,1.,1.,1.,1.,1.,1.,1.,1.,1.,       13P    174
1.,1.,1.,1.,1.,1.,1.,1.,1.,1.,1.,1.,1.,1.,1.,1.,1.,1.,1.,1.,1.,       13P    175
1.,1.,1.,1.,1.,1.,1.,1.,1.,1.,183.04,0.287373,100.,                   13P    176
182.881421269,0.32786708,100.,182.230176429,0.49416656,100.,          13P    177
180.758121133,0.842770446,100.,178.315515014,1.430938062,100.,        13P    178
174.928033068,2.218515207,100.,170.632552893,3.190137526,100.,        13P    179
165.473857201,4.318369344,100.,159.503489947,5.562021037,100.,        13P    180
152.78611942,6.898020678,100.,145.391217998,8.282938943,100.,         13P    181
137.39867903,9.686381636,100.,128.893095943,11.068583172,100.,        13P    182
119.967194841,12.397299493,100.,110.718239094,13.635606705,           13P    183
100.,101.247994607,14.747795724,100.,91.660481464,15.704530261,       13P    184
100.,82.059205111,16.464621786,100.,72.524094067,17.01759087,         13P    185
100.,63.158948441,17.275892377,100.,54.076883957,17.204971806,        13P    186
100.,45.413489362,16.80053061,100.,37.273097111,16.075164043,         13P    187
100.,29.751559657,15.04028386,100.,22.93573915,13.733700629,          13P    188
100.,16.904085726,12.184107687,100.,11.718217744,10.446748251,        13P    189
100.,7.432392677,8.557103304,100.,4.073056542,6.56494739,100.,        13P    190
1.655533672,4.492179115,100.,0.177832489,2.304155847,100.,            13P    191
-0.187266689,-0.018916517,100.,0.63079974,-2.218177221,100.,          13P    192
2.484989109,-4.076381475,100.,5.213826019,-5.655360396,100.,          13P    193
8.811509806,-7.011456121,100.,13.256218365,-8.146532629,100.,         13P    194
18.509266107,-9.057133944,100.,24.517922255,-9.736171224,100.,        13P    195
31.220358133,-10.190384589,100.,38.548085604,-10.427653463,           13P    196
100.,46.428588716,-10.466829459,100.,54.783094809,                    13P    197
-10.330199403,100.,63.528926239,-10.047854664,100.,                   13P    198
72.607976972,-9.659189909,100.,81.928799574,-9.174381668,100.,        13P    199
91.39155185,-8.565842079,100.,100.866522154,-7.879583305,100.,        13P    200
110.249870992,-7.138420857,100.,119.439113501,-6.367889945,           13P    201
100.,128.334268322,-5.595767872,100.,136.836630703,                   13P    202
-4.827676061,100.,144.852582083,-4.088209308,100.,                    13P    203
152.292378782,-3.383966294,100.,159.072059387,-2.729153553,           13P    204
100.,165.114332866,-2.136004469,100.,170.350313925,                   13P    205
-1.608731183,100.,174.719902196,-1.160230938,100.,                    13P    206
178.173101405,-0.800571206,100.,180.668630088,-0.53959439,100.,       13P    207
182.183834723,-0.376264524,100.,182.864275413,-0.305617639,           13P    208
100.,183.04,-0.287373,100.,0.,1.,0.,0.,-1.;                           13P    209
126,1,1,1,0,1,0,0.,0.,1.,1.,1.,1.,1.,0.,0.,1.,1.,0.,0.,1.,0.,         15P    210
0.,1.;                                                                15P    211
110,183.04,-0.287373,100.,183.04,-0.287373,0.;                        17P    212
126,1,1,1,0,1,0,0.,0.,1.,1.,1.,1.,1.,1.,0.,0.,1.,0.,0.,1.,0.,         19P    213
0.,1.;                                                                19P    214
126,62,3,1,0,1,0,0.,0.,0.,0.,0.00140689456336962,                     21P    215
0.00544777668795204,0.0121361206520744,0.0213882613783313,            21P    216
0.0330958899578212,0.0471158930812141,0.0632955548102874,             21P    217
0.0814444520030503,0.101356725423575,0.122806749904491,               21P    218
0.145550037891863,0.169340451279004,0.193909058679634,                21P    219
0.218984724761124,0.244296522738814,0.269559575856056,                21P    220
0.294495013902225,0.318621130822312,0.341925438462751,                21P    221
0.364176315048495,0.385156863498244,0.404676150430297,                21P    222
0.422551478963047,0.43863993688968,0.45280952937358,                  21P    223
0.46497543080659,0.475122344897503,0.483335362752455,                 21P    224
0.489930137717162,0.495623406873084,0.501318410736086,                21P    225
0.507936064143106,0.516220461422484,0.526514258543577,                21P    226
0.538929611767633,0.553457333588184,0.570019632206256,                21P    227
0.588486759863787,0.608692723359674,0.630456370025756,                21P    228
0.653547043155437,0.677739724945564,0.702766350896959,                21P    229
0.728140181426617,0.753791611006205,0.779459738583522,                21P    230
0.804864209824923,0.829722243035763,0.853767479774164,                21P    231
0.876726079584844,0.898342541916259,0.918387883970244,                21P    232
0.9366374922555,0.952882784582073,0.966952378237252,                  21P    233
0.97868890503274,0.987953660750841,0.994647477575857,                 21P    234
0.99869665575309,1.,1.,1.,1.,1.,1.,1.,1.,1.,1.,1.,1.,1.,1.,1.,        21P    235
1.,1.,1.,1.,1.,1.,1.,1.,1.,1.,1.,1.,1.,1.,1.,1.,1.,1.,1.,1.,1.,       21P    236
1.,1.,1.,1.,1.,1.,1.,1.,1.,1.,1.,1.,1.,1.,1.,1.,1.,1.,1.,1.,1.,       21P    237
1.,1.,1.,1.,1.,1.,1.,1.,1.,1.,183.04,-0.287373,0.,                    21P    238
182.864275413,-0.305617639,0.,182.183834723,-0.376264524,0.,          21P    239
180.668630088,-0.53959439,0.,178.173101405,-0.800571206,0.,           21P    240
174.719902196,-1.160230938,0.,170.350313925,-1.608731183,0.,          21P    241
165.114332866,-2.136004469,0.,159.072059387,-2.729153553,0.,          21P    242
152.292378782,-3.383966294,0.,144.852582083,-4.088209308,0.,          21P    243
136.836630703,-4.827676061,0.,128.334268322,-5.595767872,0.,          21P    244
119.439113501,-6.367889945,0.,110.249870992,-7.138420857,0.,          21P    245
100.866522154,-7.879583305,0.,91.39155185,-8.565842079,0.,            21P    246
81.928799574,-9.174381668,0.,72.607976972,-9.659189909,0.,            21P    247
63.528926239,-10.047854664,0.,54.783094809,-10.330199403,0.,          21P    248
46.428588716,-10.466829459,0.,38.548085604,-10.427653463,0.,          21P    249
31.220358133,-10.190384589,0.,24.517922255,-9.736171224,0.,           21P    250
18.509266107,-9.057133944,0.,13.256218365,-8.146532629,0.,            21P    251
8.811509806,-7.011456121,0.,5.213826019,-5.655360396,0.,              21P    252
2.484989109,-4.076381475,0.,0.63079974,-2.218177221,0.,               21P    253
-0.187266689,-0.018916517,0.,0.177832489,2.304155847,0.,              21P    254
1.655533672,4.492179115,0.,4.073056542,6.56494739,0.,                 21P    255
7.432392677,8.557103304,0.,11.718217744,10.446748251,0.,              21P    256
16.904085726,12.184107687,0.,22.93573915,13.733700629,0.,             21P    257
29.751559657,15.04028386,0.,37.273097111,16.075164043,0.,             21P    258
45.413489362,16.80053061,0.,54.076883957,17.204971806,0.,             21P    259
63.158948441,17.275892377,0.,72.524094067,17.01759087,0.,             21P    260
82.059205111,16.464621786,0.,91.660481464,15.704530261,0.,            21P    261
101.247994607,14.747795724,0.,110.718239094,13.635606705,0.,          21P    262
119.967194841,12.397299493,0.,128.893095943,11.068583172,0.,          21P    263
137.39867903,9.686381636,0.,145.391217998,8.282938943,0.,             21P    264
152.78611942,6.898020678,0.,159.503489947,5.562021037,0.,             21P    265
165.473857201,4.318369344,0.,170.632552893,3.190137526,0.,            21P    266
174.928033068,2.218515207,0.,178.315515014,1.430938062,0.,            21P    267
180.758121133,0.842770446,0.,182.230176429,0.49416656,0.,             21P    268
182.881421269,0.32786708,0.,183.04,0.287373,0.,0.,1.,0.,0.,-1.;       21P    269
102,4,7,11,15,19;                                                     23P    270
102,4,9,13,17,21;                                                     25P    271
142,1,5,23,25,1;                                                      27P    272
144,5,1,0,27;                                                         29P    273
128,1,1,1,1,0,0,1,0,0,0.,0.,1.,1.,0.,0.,1.,1.,1.,1.,1.,1.,            31P    274
183.04,-0.287373,0.,183.04,-0.287373,100.,183.04,0.287373,0.,         31P    275
183.04,0.287373,100.,0.,1.,0.,1.;                                     31P    276
126,1,1,1,0,1,0,0.,0.,1.,1.,1.,1.,0.,0.,0.,1.,0.,0.,0.,1.,0.,         33P    277
0.,1.;                                                                33P    278
110,183.04,-0.287373,0.,183.04,-0.287373,100.;                        35P    279
126,1,1,1,0,1,0,0.,0.,1.,1.,1.,1.,1.,0.,0.,1.,1.,0.,0.,1.,0.,         37P    280
0.,1.;                                                                37P    281
110,183.04,-0.287373,100.,183.04,0.287373,100.;                       39P    282
126,1,1,1,0,1,0,0.,0.,1.,1.,1.,1.,1.,1.,0.,0.,1.,0.,0.,1.,0.,         41P    283
0.,1.;                                                                41P    284
110,183.04,0.287373,100.,183.04,0.287373,0.;                          43P    285
126,1,1,1,0,1,0,0.,0.,1.,1.,1.,1.,0.,1.,0.,0.,0.,0.,0.,1.,0.,         45P    286
0.,1.;                                                                45P    287
110,183.04,0.287373,0.,183.04,-0.287373,0.;                           47P    288
102,4,33,37,41,45;                                                    49P    289
102,4,35,39,43,47;                                                    51P    290
142,1,31,49,51,1;                                                     53P    291
144,31,1,0,53;                                                        55P    292
128,1,1,1,1,0,0,1,0,0,0.,0.,1.,1.,0.,0.,1.,1.,1.,1.,1.,1.,            57P    293
183.04,-10.923025396,100.,-1.120028282,-10.923025396,100.,            57P    294
183.04,18.120799233,100.,-1.120028282,18.120799233,100.,0.,1.,        57P    295
0.,1.;                                                                57P    296
126,1,1,1,0,1,0,0.,0.,1.,1.,1.,1.,0.,0.385982168,0.,0.,               59P    297
0.366193245,0.,0.,1.,0.,0.,1.;                                        59P    298
110,183.04,0.287373,100.,183.04,-0.287373,100.;                       61P    299
126,200,2,1,0,1,0,0.,0.,0.,0.001953125,0.001953125,0.00390625,        63P    300
0.00390625,0.005859375,0.005859375,0.0078125,0.0078125,               63P    301
0.015625,0.015625,0.03125,0.03125,0.046875,0.046875,0.0625,           63P    302
0.0625,0.09375,0.09375,0.111607142857143,0.111607142857143,           63P    303
0.125,0.125,0.140625,0.140625,0.15625,0.15625,0.171875,               63P    304
0.171875,0.1875,0.1875,0.21875,0.21875,0.25,0.25,0.265625,            63P    305
0.265625,0.28125,0.28125,0.296875,0.296875,0.3125,0.3125,             63P    306
0.328125,0.328125,0.34375,0.34375,0.359375,0.359375,0.375,            63P    307
0.375,0.390625,0.390625,0.40625,0.40625,0.4140625,0.4140625,          63P    308
0.421875,0.421875,0.4296875,0.4296875,0.4375,0.4375,0.4453125,        63P    309
0.4453125,0.453125,0.453125,0.457589285714286,                        63P    310
0.457589285714286,0.462053571428571,0.462053571428571,                63P    311
0.465401785714286,0.465401785714286,0.46875,0.46875,                  63P    312
0.473214285714286,0.473214285714286,0.475446428571429,                63P    313
0.475446428571429,0.477678571428571,0.477678571428571,                63P    314
0.481026785714286,0.481026785714286,0.482700892857143,                63P    315
0.482700892857143,0.484375,0.484375,0.486328125,0.486328125,          63P    316
0.48828125,0.48828125,0.490234375,0.490234375,0.4921875,              63P    317
0.4921875,0.494140625,0.494140625,0.49609375,0.49609375,              63P    318
0.498046875,0.498046875,0.5,0.5,0.501953125,0.501953125,              63P    319
0.50390625,0.50390625,0.505859375,0.505859375,0.5078125,              63P    320
0.5078125,0.51171875,0.51171875,0.515625,0.515625,0.51953125,         63P    321
0.51953125,0.5234375,0.5234375,0.52734375,0.52734375,0.53125,         63P    322
0.53125,0.5390625,0.5390625,0.546875,0.546875,0.5546875,              63P    323
0.5546875,0.5625,0.5625,0.571428571428571,0.571428571428571,          63P    324
0.580357142857143,0.580357142857143,0.587053571428571,                63P    325
0.587053571428571,0.59375,0.59375,0.625,0.625,                        63P    326
0.642857142857143,0.642857142857143,0.65625,0.65625,0.671875,         63P    327
0.671875,0.6875,0.6875,0.703125,0.703125,0.71875,0.71875,             63P    328
0.7265625,0.7265625,0.734375,0.734375,0.75,0.75,0.78125,              63P    329
0.78125,0.8125,0.8125,0.84375,0.84375,0.859375,0.859375,0.875,        63P    330
0.875,0.890625,0.890625,0.90625,0.90625,0.921875,0.921875,            63P    331
0.9375,0.9375,0.953125,0.953125,0.96875,0.96875,0.9765625,            63P    332
0.9765625,0.984375,0.984375,0.98828125,0.98828125,0.9921875,          63P    333
0.9921875,0.994140625,0.994140625,0.9951171875,0.9951171875,          63P    334
0.99609375,0.99609375,0.998046875,0.998046875,0.9990234375,           63P    335
0.9990234375,1.,1.,1.,1.,1.,1.,1.,1.,1.,1.,1.,1.,1.,1.,1.,1.,         63P    336
1.,1.,1.,1.,1.,1.,1.,1.,1.,1.,1.,1.,1.,1.,1.,1.,1.,1.,1.,1.,1.,       63P    337
1.,1.,1.,1.,1.,1.,1.,1.,1.,1.,1.,1.,1.,1.,1.,1.,1.,1.,1.,1.,1.,       63P    338
1.,1.,1.,1.,1.,1.,1.,1.,1.,1.,1.,1.,1.,1.,1.,1.,1.,1.,1.,1.,1.,       63P    339
1.,1.,1.,1.,1.,1.,1.,1.,1.,1.,1.,1.,1.,1.,1.,1.,1.,1.,1.,1.,1.,       63P    340
1.,1.,1.,1.,1.,1.,1.,1.,1.,1.,1.,1.,1.,1.,1.,1.,1.,1.,1.,1.,1.,       63P    341
1.,1.,1.,1.,1.,1.,1.,1.,1.,1.,1.,1.,1.,1.,1.,1.,1.,1.,1.,1.,1.,       63P    342
1.,1.,1.,1.,1.,1.,1.,1.,1.,1.,1.,1.,1.,1.,1.,1.,1.,1.,1.,1.,1.,       63P    343
1.,1.,1.,1.,1.,1.,1.,1.,1.,1.,1.,1.,1.,1.,1.,1.,1.,1.,1.,1.,1.,       63P    344
1.,1.,1.,1.,1.,1.,1.,1.,1.,1.,1.,1.,1.,1.,1.,1.,1.,1.,1.,1.,0.,       63P    345
0.366193245,0.,0.00252332,0.364532065,0.,0.003973728,                 63P    346
0.363561174,0.,0.005477816,0.362554349,0.,0.007946654,                63P    347
0.360880873,0.,0.010929536,0.358858957,0.,0.01191943,                 63P    348
0.358191478,0.,0.013797294,0.356925248,0.,0.015892589,                63P    349
0.35552502,0.,0.021021708,0.352097371,0.,0.031787356,                 63P    350
0.344987601,0.,0.048725466,0.33380146,0.,0.063581419,                 63P    351
0.324189862,0.,0.079795067,0.313699855,0.,0.095382993,                63P    352
0.303858901,0.,0.109824269,0.294741849,0.,0.127192067,                63P    353
0.284005127,0.,0.159967018,0.263743747,0.,0.190825264,                63P    354
0.245280262,0.,0.208739786,0.234561426,0.,0.227196039,                63P    355
0.223750712,0.,0.240481135,0.215968994,0.,0.254478186,                63P    356
0.207881441,0.,0.27142996,0.198086638,0.,0.286311529,                 63P    357
0.189658008,0.,0.302149271,0.18068782,0.,0.318150777,                 63P    358
0.171854967,0.,0.33376668,0.163234967,0.,0.349995989,                 63P    359
0.154484695,0.,0.366735564,0.145459307,0.,0.381846914,                63P    360
0.137541158,0.,0.41568456,0.119810678,0.,0.445571813,                 63P    361
0.105449121,0.,0.47898971,0.089391003,0.,0.509335386,                 63P    362
0.07661013,0.,0.525958169,0.069609012,0.,0.541234347,                 63P    363
0.063797769,0.,0.55693817,0.057823844,0.,0.573146649,                 63P    364
0.052406949,0.,0.588680513,0.04721551,0.,0.605070541,                 63P    365
0.042389923,0.,0.62132883,0.037603122,0.,0.637003445,                 63P    366
0.033615894,0.,0.653696264,0.02936966,0.,0.668945004,                 63P    367
0.026204036,0.,0.685643546,0.022737434,0.,0.700895403,                63P    368
0.020529057,0.,0.717526197,0.018121019,0.,0.732854013,                63P    369
0.017152506,0.,0.749491605,0.016101233,0.,0.764817096,                63P    370
0.016715717,0.,0.78143735,0.017382116,0.,0.796776135,                 63P    371
0.020006062,0.,0.813427461,0.022854539,0.,0.828714034,                63P    372
0.028075981,0.,0.836900744,0.03087232,0.,0.844665742,                 63P    373
0.034342861,0.,0.852816517,0.037985824,0.,0.860597241,                63P    374
0.042413357,0.,0.868835378,0.047101175,0.,0.876499592,                63P    375
0.052573619,0.,0.88467346,0.05840997,0.,0.892356665,                  63P    376
0.065253597,0.,0.900607429,0.072602764,0.,0.908147116,                63P    377
0.080969248,0.,0.916295572,0.09001126,0.,0.923831605,                 63P    378
0.100482553,0.,0.928452437,0.106903184,0.,0.932725567,                63P    379
0.113706123,0.,0.937286664,0.120967513,0.,0.941544283,                63P    380
0.128810514,0.,0.944901324,0.134994553,0.,0.948094236,                63P    381
0.141582387,0.,0.951477474,0.148562916,0.,0.954572088,                63P    382
0.15579791,0.,0.959034014,0.166229586,0.,0.963041818,                 63P    383
0.177534314,0.,0.965168792,0.183533829,0.,0.967182014,                63P    384
0.189814132,0.,0.969312099,0.196458995,0.,0.97123912,                 63P    385
0.203197827,0.,0.974379604,0.214180162,0.,0.977095483,                63P    386
0.225819945,0.,0.978543909,0.232027649,0.,0.979887669,                63P    387
0.238486998,0.,0.981300405,0.245277915,0.,0.9825674,                  63P    388
0.252187703,0.,0.984149576,0.260816386,0.,0.985498767,                63P    389
0.26961583,0.,0.98694387,0.279040811,0.,0.988137126,                  63P    390
0.288760746,0.,0.989402055,0.299064513,0.,0.990394821,                63P    391
0.309791958,0.,0.9914291,0.320967982,0.,0.992183535,                  63P    392
0.332698864,0.,0.992959498,0.344764485,0.,0.993413276,                63P    393
0.357015413,0.,0.993880213,0.369621586,0.,0.99399416,                 63P    394
0.382204382,0.,0.994107734,0.394746061,0.,0.993885211,                63P    395
0.407690608,0.,0.993669064,0.420264233,0.,0.993142877,                63P    396
0.432823357,0.,0.992630592,0.445050632,0.,0.99183529,                 63P    397
0.45694704,0.,0.991074694,0.468324313,0.,0.990039983,                 63P    398
0.479667307,0.,0.989069027,0.490311388,0.,0.987849378,                63P    399
0.501003881,0.,0.986717185,0.510929657,0.,0.985357219,                63P    400
0.521013194,0.,0.982858323,0.539541382,0.,0.979763586,                63P    401
0.55735136,0.,0.976967662,0.573441682,0.,0.973579164,                 63P    402
0.589541306,0.,0.970479611,0.604268079,0.,0.96701222,                 63P    403
0.61848264,0.,0.963772969,0.631761943,0.,0.960172154,                 63P    404
0.644748983,0.,0.956837663,0.656775477,0.,0.953129566,                63P    405
0.66878586,0.,0.949641143,0.680084731,0.,0.945940955,                 63P    406
0.690965052,0.,0.939043244,0.711247615,0.,0.931226943,                63P    407
0.730583697,0.,0.924017714,0.748417994,0.,0.91619509,                 63P    408
0.765043817,0.,0.908901329,0.78054562,0.,0.900938138,                 63P    409
0.795288955,0.,0.893417285,0.809213331,0.,0.885520861,                63P    410
0.822030682,0.,0.876894113,0.836033483,0.,0.867749677,                63P    411
0.848827753,0.,0.859010268,0.861055338,0.,0.849855729,                63P    412
0.872090259,0.,0.843239197,0.880065856,0.,0.83637167,                 63P    413
0.887460131,0.,0.829687251,0.894657253,0.,0.822844878,                63P    414
0.901224039,0.,0.792668452,0.93018506,0.,0.759334105,                 63P    415
0.946903166,0.,0.741478776,0.955858112,0.,0.722874379,                63P    416
0.961269254,0.,0.709373025,0.965196161,0.,0.695492675,                63P    417
0.967244769,0.,0.679741282,0.969569525,0.,0.663530731,                63P    418
0.969466284,0.,0.647813528,0.969366185,0.,0.631569325,                63P    419
0.966979033,0.,0.615895344,0.964675678,0.,0.599623388,                63P    420
0.960228389,0.,0.584229282,0.956021024,0.,0.567703102,                63P    421
0.949726867,0.,0.559897126,0.946753885,0.,0.55175354,                 63P    422
0.943284629,0.,0.543812997,0.939901872,0.,0.535811232,                63P    423
0.936164156,0.,0.5199297,0.928745711,0.,0.503950057,                  63P    424
0.919990366,0.,0.473059687,0.903065343,0.,0.440332733,                63P    425
0.880262213,0.,0.408954645,0.858398932,0.,0.376865926,                63P    426
0.831807419,0.,0.345610346,0.805906318,0.,0.313561922,                63P    427
0.77543455,0.,0.297824167,0.76047103,0.,0.281973932,0.74448169,       63P    428
0.,0.26617779,0.728546918,0.,0.250430616,0.711749666,0.,              63P    429
0.23476078,0.695034909,0.,0.218934386,0.677244068,0.,                 63P    430
0.203167114,0.659519688,0.,0.187486431,0.641010467,0.,                63P    431
0.171676343,0.622348499,0.,0.156089785,0.603032665,0.,                63P    432
0.140643419,0.583890565,0.,0.124747355,0.563294578,0.,                63P    433
0.108532865,0.542286017,0.,0.093460631,0.521830499,0.,                63P    434
0.078309439,0.501267821,0.,0.062238338,0.478458572,0.,                63P    435
0.054414765,0.4673548,0.,0.046650496,0.456108241,0.,                  63P    436
0.038295311,0.444005741,0.,0.031078975,0.433303486,0.,                63P    437
0.02708017,0.42737302,0.,0.023301442,0.421679234,0.,                  63P    438
0.020967378,0.418162266,0.,0.015529358,0.409909833,0.,                63P    439
0.013100125,0.406223366,0.,0.011643486,0.404019096,0.,                63P    440
0.010912468,0.402912879,0.,0.009700208,0.401082117,0.,                63P    441
0.008448872,0.399192341,0.,0.007757011,0.398142915,0.,                63P    442
0.005502619,0.394723412,0.,0.003874078,0.392175741,0.,                63P    443
0.002904006,0.39065817,0.,0.001935966,0.38910638,0.,                  63P    444
0.001290388,0.388071506,0.,0.,0.385982168,0.,0.,1.,0.,0.,1.;          63P    445
126,62,3,1,0,1,0,0.,0.,0.,0.,0.00140689456336962,                     65P    446
0.00544777668795204,0.0121361206520744,0.0213882613783313,            65P    447
0.0330958899578212,0.0471158930812141,0.0632955548102874,             65P    448
0.0814444520030503,0.101356725423575,0.122806749904491,               65P    449
0.145550037891863,0.169340451279004,0.193909058679634,                65P    450
0.218984724761124,0.244296522738814,0.269559575856056,                65P    451
0.294495013902225,0.318621130822312,0.341925438462751,                65P    452
0.364176315048495,0.385156863498244,0.404676150430297,                65P    453
0.422551478963047,0.43863993688968,0.45280952937358,                  65P    454
0.46497543080659,0.475122344897503,0.483335362752455,                 65P    455
0.489930137717162,0.495623406873084,0.501318410736086,                65P    456
0.507936064143106,0.516220461422484,0.526514258543577,                65P    457
0.538929611767633,0.553457333588184,0.570019632206256,                65P    458
0.588486759863787,0.608692723359674,0.630456370025756,                65P    459
0.653547043155437,0.677739724945564,0.702766350896959,                65P    460
0.728140181426617,0.753791611006205,0.779459738583522,                65P    461
0.804864209824923,0.829722243035763,0.853767479774164,                65P    462
0.876726079584844,0.898342541916259,0.918387883970244,                65P    463
0.9366374922555,0.952882784582073,0.966952378237252,                  65P    464
0.97868890503274,0.987953660750841,0.994647477575857,                 65P    465
0.99869665575309,1.,1.,1.,1.,1.,1.,1.,1.,1.,1.,1.,1.,1.,1.,1.,        65P    466
1.,1.,1.,1.,1.,1.,1.,1.,1.,1.,1.,1.,1.,1.,1.,1.,1.,1.,1.,1.,1.,       65P    467
1.,1.,1.,1.,1.,1.,1.,1.,1.,1.,1.,1.,1.,1.,1.,1.,1.,1.,1.,1.,1.,       65P    468
1.,1.,1.,1.,1.,1.,1.,1.,1.,1.,183.04,-0.287373,100.,                  65P    469
182.864275413,-0.305617639,100.,182.183834723,-0.376264524,           65P    470
100.,180.668630088,-0.53959439,100.,178.173101405,-0.800571206,       65P    471
100.,174.719902196,-1.160230938,100.,170.350313925,                   65P    472
-1.608731183,100.,165.114332866,-2.136004469,100.,                    65P    473
159.072059387,-2.729153553,100.,152.292378782,-3.383966294,           65P    474
100.,144.852582083,-4.088209308,100.,136.836630703,                   65P    475
-4.827676061,100.,128.334268322,-5.595767872,100.,                    65P    476
119.439113501,-6.367889945,100.,110.249870992,-7.138420857,           65P    477
100.,100.866522154,-7.879583305,100.,91.39155185,-8.565842079,        65P    478
100.,81.928799574,-9.174381668,100.,72.607976972,-9.659189909,        65P    479
100.,63.528926239,-10.047854664,100.,54.783094809,                    65P    480
-10.330199403,100.,46.428588716,-10.466829459,100.,                   65P    481
38.548085604,-10.427653463,100.,31.220358133,-10.190384589,           65P    482
100.,24.517922255,-9.736171224,100.,18.509266107,-9.057133944,        65P    483
100.,13.256218365,-8.146532629,100.,8.811509806,-7.011456121,         65P    484
100.,5.213826019,-5.655360396,100.,2.484989109,-4.076381475,          65P    485
100.,0.63079974,-2.218177221,100.,-0.187266689,-0.018916517,          65P    486
100.,0.177832489,2.304155847,100.,1.655533672,4.492179115,100.,       65P    487
4.073056542,6.56494739,100.,7.432392677,8.557103304,100.,             65P    488
11.718217744,10.446748251,100.,16.904085726,12.184107687,100.,        65P    489
22.93573915,13.733700629,100.,29.751559657,15.04028386,100.,          65P    490
37.273097111,16.075164043,100.,45.413489362,16.80053061,100.,         65P    491
54.076883957,17.204971806,100.,63.158948441,17.275892377,100.,        65P    492
72.524094067,17.01759087,100.,82.059205111,16.464621786,100.,         65P    493
91.660481464,15.704530261,100.,101.247994607,14.747795724,100.,       65P    494
110.718239094,13.635606705,100.,119.967194841,12.397299493,           65P    495
100.,128.893095943,11.068583172,100.,137.39867903,9.686381636,        65P    496
100.,145.391217998,8.282938943,100.,152.78611942,6.898020678,         65P    497
100.,159.503489947,5.562021037,100.,165.473857201,4.318369344,        65P    498
100.,170.632552893,3.190137526,100.,174.928033068,2.218515207,        65P    499
100.,178.315515014,1.430938062,100.,180.758121133,0.842770446,        65P    500
100.,182.230176429,0.49416656,100.,182.881421269,0.32786708,          65P    501
100.,183.04,0.287373,100.,0.,1.,0.,0.,-1.;                            65P    502
102,2,59,63;                                                          67P    503
102,2,61,65;                                                          69P    504
142,1,57,67,69,1;                                                     71P    505
144,57,1,0,71;                                                        73P    506
128,1,1,1,1,0,0,1,0,0,0.,0.,1.,1.,0.,0.,1.,1.,1.,1.,1.,1.,            75P    507
183.04,-10.923025396,0.,-1.120028282,-10.923025396,0.,183.04,         75P    508
18.120799233,0.,-1.120028282,18.120799233,0.,0.,1.,0.,1.;             75P    509
126,200,2,1,0,1,0,0.,0.,0.,0.001953125,0.001953125,0.00390625,        77P    510
0.00390625,0.005859375,0.005859375,0.0078125,0.0078125,               77P    511
0.015625,0.015625,0.03125,0.03125,0.046875,0.046875,0.0625,           77P    512
0.0625,0.09375,0.09375,0.111607142857143,0.111607142857143,           77P    513
0.125,0.125,0.140625,0.140625,0.15625,0.15625,0.171875,               77P    514
0.171875,0.1875,0.1875,0.21875,0.21875,0.25,0.25,0.265625,            77P    515
0.265625,0.28125,0.28125,0.296875,0.296875,0.3125,0.3125,             77P    516
0.328125,0.328125,0.34375,0.34375,0.359375,0.359375,0.375,            77P    517
0.375,0.390625,0.390625,0.40625,0.40625,0.4140625,0.4140625,          77P    518
0.421875,0.421875,0.4296875,0.4296875,0.4375,0.4375,0.4453125,        77P    519
0.4453125,0.453125,0.453125,0.457589285714286,                        77P    520
0.457589285714286,0.462053571428571,0.462053571428571,                77P    521
0.465401785714286,0.465401785714286,0.46875,0.46875,                  77P    522
0.473214285714286,0.473214285714286,0.475446428571429,                77P    523
0.475446428571429,0.477678571428571,0.477678571428571,                77P    524
0.481026785714286,0.481026785714286,0.482700892857143,                77P    525
0.482700892857143,0.484375,0.484375,0.486328125,0.486328125,          77P    526
0.48828125,0.48828125,0.490234375,0.490234375,0.4921875,              77P    527
0.4921875,0.494140625,0.494140625,0.49609375,0.49609375,              77P    528
0.498046875,0.498046875,0.5,0.5,0.501953125,0.501953125,              77P    529
0.50390625,0.50390625,0.505859375,0.505859375,0.5078125,              77P    530
0.5078125,0.51171875,0.51171875,0.515625,0.515625,0.51953125,         77P    531
0.51953125,0.5234375,0.5234375,0.52734375,0.52734375,0.53125,         77P    532
0.53125,0.5390625,0.5390625,0.546875,0.546875,0.5546875,              77P    533
0.5546875,0.5625,0.5625,0.571428571428571,0.571428571428571,          77P    534
0.580357142857143,0.580357142857143,0.587053571428571,                77P    535
0.587053571428571,0.59375,0.59375,0.625,0.625,                        77P    536
0.642857142857143,0.642857142857143,0.65625,0.65625,0.671875,         77P    537
0.671875,0.6875,0.6875,0.703125,0.703125,0.71875,0.71875,             77P    538
0.7265625,0.7265625,0.734375,0.734375,0.75,0.75,0.78125,              77P    539
0.78125,0.8125,0.8125,0.84375,0.84375,0.859375,0.859375,0.875,        77P    540
0.875,0.890625,0.890625,0.90625,0.90625,0.921875,0.921875,            77P    541
0.9375,0.9375,0.953125,0.953125,0.96875,0.96875,0.9765625,            77P    542
0.9765625,0.984375,0.984375,0.98828125,0.98828125,0.9921875,          77P    543
0.9921875,0.994140625,0.994140625,0.9951171875,0.9951171875,          77P    544
0.99609375,0.99609375,0.998046875,0.998046875,0.9990234375,           77P    545
0.9990234375,1.,1.,1.,1.,1.,1.,1.,1.,1.,1.,1.,1.,1.,1.,1.,1.,         77P    546
1.,1.,1.,1.,1.,1.,1.,1.,1.,1.,1.,1.,1.,1.,1.,1.,1.,1.,1.,1.,1.,       77P    547
1.,1.,1.,1.,1.,1.,1.,1.,1.,1.,1.,1.,1.,1.,1.,1.,1.,1.,1.,1.,1.,       77P    548
1.,1.,1.,1.,1.,1.,1.,1.,1.,1.,1.,1.,1.,1.,1.,1.,1.,1.,1.,1.,1.,       77P    549
1.,1.,1.,1.,1.,1.,1.,1.,1.,1.,1.,1.,1.,1.,1.,1.,1.,1.,1.,1.,1.,       77P    550
1.,1.,1.,1.,1.,1.,1.,1.,1.,1.,1.,1.,1.,1.,1.,1.,1.,1.,1.,1.,1.,       77P    551
1.,1.,1.,1.,1.,1.,1.,1.,1.,1.,1.,1.,1.,1.,1.,1.,1.,1.,1.,1.,1.,       77P    552
1.,1.,1.,1.,1.,1.,1.,1.,1.,1.,1.,1.,1.,1.,1.,1.,1.,1.,1.,1.,1.,       77P    553
1.,1.,1.,1.,1.,1.,1.,1.,1.,1.,1.,1.,1.,1.,1.,1.,1.,1.,1.,1.,1.,       77P    554
1.,1.,1.,1.,1.,1.,1.,1.,1.,1.,1.,1.,1.,1.,1.,1.,1.,1.,1.,1.,0.,       77P    555
0.366193245,0.,0.00252332,0.364532065,0.,0.003973728,                 77P    556
0.363561174,0.,0.005477816,0.362554349,0.,0.007946654,                77P    557
0.360880873,0.,0.010929536,0.358858957,0.,0.01191943,                 77P    558
0.358191478,0.,0.013797294,0.356925248,0.,0.015892589,                77P    559
0.35552502,0.,0.021021708,0.352097371,0.,0.031787356,                 77P    560
0.344987601,0.,0.048725466,0.33380146,0.,0.063581419,                 77P    561
0.324189862,0.,0.079795067,0.313699855,0.,0.095382993,                77P    562
0.303858901,0.,0.109824269,0.294741849,0.,0.127192067,                77P    563
0.284005127,0.,0.159967018,0.263743747,0.,0.190825264,                77P    564
0.245280262,0.,0.208739786,0.234561426,0.,0.227196039,                77P    565
0.223750712,0.,0.240481135,0.215968994,0.,0.254478186,                77P    566
0.207881441,0.,0.27142996,0.198086638,0.,0.286311529,                 77P    567
0.189658008,0.,0.302149271,0.18068782,0.,0.318150777,                 77P    568
0.171854967,0.,0.33376668,0.163234967,0.,0.349995989,                 77P    569
0.154484695,0.,0.366735564,0.145459307,0.,0.381846914,                77P    570
0.137541158,0.,0.41568456,0.119810678,0.,0.445571813,                 77P    571
0.105449121,0.,0.47898971,0.089391003,0.,0.509335386,                 77P    572
0.07661013,0.,0.525958169,0.069609012,0.,0.541234347,                 77P    573
0.063797769,0.,0.55693817,0.057823844,0.,0.573146649,                 77P    574
0.052406949,0.,0.588680513,0.04721551,0.,0.605070541,                 77P    575
0.042389923,0.,0.62132883,0.037603122,0.,0.637003445,                 77P    576
0.033615894,0.,0.653696264,0.02936966,0.,0.668945004,                 77P    577
0.026204036,0.,0.685643546,0.022737434,0.,0.700895403,                77P    578
0.020529057,0.,0.717526197,0.018121019,0.,0.732854013,                77P    579
0.017152506,0.,0.749491605,0.016101233,0.,0.764817096,                77P    580
0.016715717,0.,0.78143735,0.017382116,0.,0.796776135,                 77P    581
0.020006062,0.,0.813427461,0.022854539,0.,0.828714034,                77P    582
0.028075981,0.,0.836900744,0.03087232,0.,0.844665742,                 77P    583
0.034342861,0.,0.852816517,0.037985824,0.,0.860597241,                77P    584
0.042413357,0.,0.868835378,0.047101175,0.,0.876499592,                77P    585
0.052573619,0.,0.88467346,0.05840997,0.,0.892356665,                  77P    586
0.065253597,0.,0.900607429,0.072602764,0.,0.908147116,                77P    587
0.080969248,0.,0.916295572,0.09001126,0.,0.923831605,                 77P    588
0.100482553,0.,0.928452437,0.106903184,0.,0.932725567,                77P    589
0.113706123,0.,0.937286664,0.120967513,0.,0.941544283,                77P    590
0.128810514,0.,0.944901324,0.134994553,0.,0.948094236,                77P    591
0.141582387,0.,0.951477474,0.148562916,0.,0.954572088,                77P    592
0.15579791,0.,0.959034014,0.166229586,0.,0.963041818,                 77P    593
0.177534314,0.,0.965168792,0.183533829,0.,0.967182014,                77P    594
0.189814132,0.,0.969312099,0.196458995,0.,0.97123912,                 77P    595
0.203197827,0.,0.974379604,0.214180162,0.,0.977095483,                77P    596
0.225819945,0.,0.978543909,0.232027649,0.,0.979887669,                77P    597
0.238486998,0.,0.981300405,0.245277915,0.,0.9825674,                  77P    598
0.252187703,0.,0.984149576,0.260816386,0.,0.985498767,                77P    599
0.26961583,0.,0.98694387,0.279040811,0.,0.988137126,                  77P    600
0.288760746,0.,0.989402055,0.299064513,0.,0.990394821,                77P    601
0.309791958,0.,0.9914291,0.320967982,0.,0.992183535,                  77P    602
0.332698864,0.,0.992959498,0.344764485,0.,0.993413276,                77P    603
0.357015413,0.,0.993880213,0.369621586,0.,0.99399416,                 77P    604
0.382204382,0.,0.994107734,0.394746061,0.,0.993885211,                77P    605
0.407690608,0.,0.993669064,0.420264233,0.,0.993142877,                77P    606
0.432823357,0.,0.992630592,0.445050632,0.,0.99183529,                 77P    607
0.45694704,0.,0.991074694,0.468324313,0.,0.990039983,                 77P    608
0.479667307,0.,0.989069027,0.490311388,0.,0.987849378,                77P    609
0.501003881,0.,0.986717185,0.510929657,0.,0.985357219,                77P    610
0.521013194,0.,0.982858323,0.539541382,0.,0.979763586,                77P    611
0.55735136,0.,0.976967662,0.573441682,0.,0.973579164,                 77P    612
0.589541306,0.,0.970479611,0.604268079,0.,0.96701222,                 77P    613
0.61848264,0.,0.963772969,0.631761943,0.,0.960172154,                 77P    614
0.644748983,0.,0.956837663,0.656775477,0.,0.953129566,                77P    615
0.66878586,0.,0.949641143,0.680084731,0.,0.945940955,                 77P    616
0.690965052,0.,0.939043244,0.711247615,0.,0.931226943,                77P    617
0.730583697,0.,0.924017714,0.748417994,0.,0.91619509,                 77P    618
0.765043817,0.,0.908901329,0.78054562,0.,0.900938138,                 77P    619
0.795288955,0.,0.893417285,0.809213331,0.,0.885520861,                77P    620
0.822030682,0.,0.876894113,0.836033483,0.,0.867749677,                77P    621
0.848827753,0.,0.859010268,0.861055338,0.,0.849855729,                77P    622
0.872090259,0.,0.843239197,0.880065856,0.,0.83637167,                 77P    623
0.887460131,0.,0.829687251,0.894657253,0.,0.822844878,                77P    624
0.901224039,0.,0.792668452,0.93018506,0.,0.759334105,                 77P    625
0.946903166,0.,0.741478776,0.955858112,0.,0.722874379,                77P    626
0.961269254,0.,0.709373025,0.965196161,0.,0.695492675,                77P    627
0.967244769,0.,0.679741282,0.969569525,0.,0.663530731,                77P    628
0.969466284,0.,0.647813528,0.969366185,0.,0.631569325,                77P    629
0.966979033,0.,0.615895344,0.964675678,0.,0.599623388,                77P    630
0.960228389,0.,0.584229282,0.956021024,0.,0.567703102,                77P    631
0.949726867,0.,0.559897126,0.946753885,0.,0.55175354,                 77P    632
0.943284629,0.,0.543812997,0.939901872,0.,0.535811232,                77P    633
0.936164156,0.,0.5199297,0.928745711,0.,0.503950057,                  77P    634
0.919990366,0.,0.473059687,0.903065343,0.,0.440332733,                77P    635
0.880262213,0.,0.408954645,0.858398932,0.,0.376865926,                77P    636
0.831807419,0.,0.345610346,0.805906318,0.,0.313561922,                77P    637
0.77543455,0.,0.297824167,0.76047103,0.,0.281973932,0.74448169,       77P    638
0.,0.26617779,0.728546918,0.,0.250430616,0.711749666,0.,              77P    639
0.23476078,0.695034909,0.,0.218934386,0.677244068,0.,                 77P    640
0.203167114,0.659519688,0.,0.187486431,0.641010467,0.,                77P    641
0.171676343,0.622348499,0.,0.156089785,0.603032665,0.,                77P    642
0.140643419,0.583890565,0.,0.124747355,0.563294578,0.,                77P    643
0.108532865,0.542286017,0.,0.093460631,0.521830499,0.,                77P    644
0.078309439,0.501267821,0.,0.062238338,0.478458572,0.,                77P    645
0.054414765,0.4673548,0.,0.046650496,0.456108241,0.,                  77P    646
0.038295311,0.444005741,0.,0.031078975,0.433303486,0.,                77P    647
0.02708017,0.42737302,0.,0.023301442,0.421679234,0.,                  77P    648
0.020967378,0.418162266,0.,0.015529358,0.409909833,0.,                77P    649
0.013100125,0.406223366,0.,0.011643486,0.404019096,0.,                77P    650
0.010912468,0.402912879,0.,0.009700208,0.401082117,0.,                77P    651
0.008448872,0.399192341,0.,0.007757011,0.398142915,0.,                77P    652
0.005502619,0.394723412,0.,0.003874078,0.392175741,0.,                77P    653
0.002904006,0.39065817,0.,0.001935966,0.38910638,0.,                  77P    654
0.001290388,0.388071506,0.,0.,0.385982168,0.,0.,1.,0.,0.,1.;          77P    655
126,62,3,1,0,1,0,0.,0.,0.,0.,0.00140689456336962,                     79P    656
0.00544777668795204,0.0121361206520744,0.0213882613783313,            79P    657
0.0330958899578212,0.0471158930812141,0.0632955548102874,             79P    658
0.0814444520030503,0.101356725423575,0.122806749904491,               79P    659
0.145550037891863,0.169340451279004,0.193909058679634,                79P    660
0.218984724761124,0.244296522738814,0.269559575856056,                79P    661
0.294495013902225,0.318621130822312,0.341925438462751,                79P    662
0.364176315048495,0.385156863498244,0.404676150430297,                79P    663
0.422551478963047,0.43863993688968,0.45280952937358,                  79P    664
0.46497543080659,0.475122344897503,0.483335362752455,                 79P    665
0.489930137717162,0.495623406873084,0.501318410736086,                79P    666
0.507936064143106,0.516220461422484,0.526514258543577,                79P    667
0.538929611767633,0.553457333588184,0.570019632206256,                79P    668
0.588486759863787,0.608692723359674,0.630456370025756,                79P    669
0.653547043155437,0.677739724945564,0.702766350896959,                79P    670
0.728140181426617,0.753791611006205,0.779459738583522,                79P    671
0.804864209824923,0.829722243035763,0.853767479774164,                79P    672
0.876726079584844,0.898342541916259,0.918387883970244,                79P    673
0.9366374922555,0.952882784582073,0.966952378237252,                  79P    674
0.97868890503274,0.987953660750841,0.994647477575857,                 79P    675
0.99869665575309,1.,1.,1.,1.,1.,1.,1.,1.,1.,1.,1.,1.,1.,1.,1.,        79P    676
1.,1.,1.,1.,1.,1.,1.,1.,1.,1.,1.,1.,1.,1.,1.,1.,1.,1.,1.,1.,1.,       79P    677
1.,1.,1.,1.,1.,1.,1.,1.,1.,1.,1.,1.,1.,1.,1.,1.,1.,1.,1.,1.,1.,       79P    678
1.,1.,1.,1.,1.,1.,1.,1.,1.,1.,183.04,-0.287373,0.,                    79P    679
182.864275413,-0.305617639,0.,182.183834723,-0.376264524,0.,          79P    680
180.668630088,-0.53959439,0.,178.173101405,-0.800571206,0.,           79P    681
174.719902196,-1.160230938,0.,170.350313925,-1.608731183,0.,          79P    682
165.114332866,-2.136004469,0.,159.072059387,-2.729153553,0.,          79P    683
152.292378782,-3.383966294,0.,144.852582083,-4.088209308,0.,          79P    684
136.836630703,-4.827676061,0.,128.334268322,-5.595767872,0.,          79P    685
119.439113501,-6.367889945,0.,110.249870992,-7.138420857,0.,          79P    686
100.866522154,-7.879583305,0.,91.39155185,-8.565842079,0.,            79P    687
81.928799574,-9.174381668,0.,72.607976972,-9.659189909,0.,            79P    688
63.528926239,-10.047854664,0.,54.783094809,-10.330199403,0.,          79P    689
46.428588716,-10.466829459,0.,38.548085604,-10.427653463,0.,          79P    690
31.220358133,-10.190384589,0.,24.517922255,-9.736171224,0.,           79P    691
18.509266107,-9.057133944,0.,13.256218365,-8.146532629,0.,            79P    692
8.811509806,-7.011456121,0.,5.213826019,-5.655360396,0.,              79P    693
2.484989109,-4.076381475,0.,0.63079974,-2.218177221,0.,               79P    694
-0.187266689,-0.018916517,0.,0.177832489,2.304155847,0.,              79P    695
1.655533672,4.492179115,0.,4.073056542,6.56494739,0.,                 79P    696
7.432392677,8.557103304,0.,11.718217744,10.446748251,0.,              79P    697
16.904085726,12.184107687,0.,22.93573915,13.733700629,0.,             79P    698
29.751559657,15.04028386,0.,37.273097111,16.075164043,0.,             79P    699
45.413489362,16.80053061,0.,54.076883957,17.204971806,0.,             79P    700
63.158948441,17.275892377,0.,72.524094067,17.01759087,0.,             79P    701
82.059205111,16.464621786,0.,91.660481464,15.704530261,0.,            79P    702
101.247994607,14.747795724,0.,110.718239094,13.635606705,0.,          79P    703
119.967194841,12.397299493,0.,128.893095943,11.068583172,0.,          79P    704
137.39867903,9.686381636,0.,145.391217998,8.282938943,0.,             79P    705
152.78611942,6.898020678,0.,159.503489947,5.562021037,0.,             79P    706
165.473857201,4.318369344,0.,170.632552893,3.190137526,0.,            79P    707
174.928033068,2.218515207,0.,178.315515014,1.430938062,0.,            79P    708
180.758121133,0.842770446,0.,182.230176429,0.49416656,0.,             79P    709
182.881421269,0.32786708,0.,183.04,0.287373,0.,0.,1.,0.,0.,-1.;       79P    710
126,1,1,1,0,1,0,0.,0.,1.,1.,1.,1.,0.,0.385982168,0.,0.,               81P    711
0.366193245,0.,0.,1.,0.,0.,1.;                                        81P    712
110,183.04,0.287373,0.,183.04,-0.287373,0.;                           83P    713
102,2,77,81;                                                          85P    714
102,2,79,83;                                                          87P    715
142,1,75,85,87,1;                                                     89P    716
144,75,1,0,89;                                                        91P    717
S      1G      4D     92P    717                                        T      1
